<svg width="41" height="41" viewBox="0 0 41 41" fill="none" xmlns="http://www.w3.org/2000/svg">
<path d="M24.6517 24.2591C23.4431 24.1799 22.4929 23.1801 22.4929 21.9579C22.4929 21.9171 22.4937 21.8763 22.4961 21.8355V21.8411C22.4937 21.8027 22.4921 21.7579 22.4921 21.7123C22.4921 20.4925 23.4439 19.4959 24.6453 19.4231H24.6517C25.8587 19.4887 26.8122 20.4829 26.8122 21.7003C26.8122 21.7499 26.8106 21.7987 26.8074 21.8475V21.8411C26.8098 21.8811 26.8114 21.9283 26.8114 21.9755C26.8114 23.1937 25.8587 24.1895 24.6573 24.2583H24.6509L24.6517 24.2591ZM16.6802 24.2591C15.4716 24.1799 14.5214 23.1801 14.5214 21.9579C14.5214 21.9171 14.5222 21.8763 14.5246 21.8355V21.8411C14.5222 21.8027 14.5206 21.7579 14.5206 21.7123C14.5206 20.4925 15.4724 19.4959 16.6738 19.4231H16.6802C17.8872 19.4887 18.8407 20.4829 18.8407 21.7003C18.8407 21.7499 18.8391 21.7987 18.8359 21.8475V21.8411C18.8383 21.8795 18.8399 21.9243 18.8399 21.9699C18.8399 23.1897 17.888 24.1863 16.6866 24.2591H16.6802ZM28.9718 13.3025C27.5616 12.637 25.9235 12.1107 24.2086 11.806L24.0894 11.7884C24.0854 11.7876 24.0806 11.7868 24.0758 11.7868C24.0478 11.7868 24.0238 11.802 24.011 11.8244C23.8239 12.1531 23.6207 12.5634 23.4375 12.9842L23.4031 13.0729C22.5793 12.941 21.629 12.8658 20.6612 12.8658C19.6933 12.8658 18.7431 12.941 17.8161 13.0857L17.9192 13.0721C17.7033 12.5682 17.4969 12.1587 17.2689 11.762L17.3017 11.8236C17.2881 11.8004 17.2633 11.786 17.2354 11.786C17.2314 11.786 17.2266 11.786 17.2226 11.7868C15.3885 12.1091 13.7503 12.6346 12.2194 13.3521L12.3402 13.3009C12.3266 13.3065 12.3154 13.3161 12.3082 13.3281C10.0254 16.5604 8.65918 20.5821 8.65918 24.923C8.65918 25.6484 8.69757 26.3643 8.77196 27.0698L8.76476 26.9818C8.76716 27.005 8.77916 27.0242 8.79596 27.0378C10.5077 28.3184 12.4977 29.3502 14.6454 30.0277L14.7862 30.0661C14.7926 30.0685 14.8006 30.0693 14.8086 30.0693C14.8342 30.0693 14.8565 30.0573 14.8701 30.0389C15.2981 29.463 15.7052 28.8103 16.0579 28.1256L16.0955 28.0457C16.1003 28.0361 16.1035 28.0241 16.1035 28.0113C16.1035 27.9785 16.0827 27.9513 16.0539 27.9401H16.0531C15.3237 27.6585 14.707 27.3586 14.1199 27.0146L14.1815 27.0482C14.1583 27.0346 14.1431 27.0098 14.1431 26.9818C14.1431 26.957 14.1551 26.9346 14.1735 26.921C14.299 26.8267 14.4254 26.7291 14.5454 26.6299C14.5582 26.6195 14.575 26.6131 14.5926 26.6131C14.6038 26.6131 14.6142 26.6155 14.623 26.6195H14.6222C16.3883 27.4681 18.4615 27.9641 20.65 27.9641C22.8384 27.9641 24.9125 27.4681 26.7634 26.5827L26.6778 26.6195C26.6874 26.6147 26.6978 26.6123 26.7098 26.6123C26.7274 26.6123 26.7442 26.6187 26.757 26.6291C26.8769 26.7283 27.0025 26.8275 27.1297 26.921C27.1481 26.9354 27.1601 26.9578 27.1601 26.9826C27.1601 27.0106 27.1449 27.0346 27.1233 27.0482C26.5946 27.3642 25.9779 27.6633 25.3356 27.9105L25.2516 27.9393C25.2228 27.9505 25.202 27.9785 25.202 28.0105C25.202 28.0233 25.2052 28.0353 25.2108 28.0457C25.6116 28.8135 26.0179 29.4646 26.4674 30.0829L26.4354 30.0373C26.449 30.0565 26.4722 30.0693 26.497 30.0693C26.505 30.0693 26.513 30.0677 26.5202 30.0661C28.8118 29.3526 30.8051 28.3208 32.5712 27.001L32.5192 27.0386C32.5368 27.0258 32.548 27.0058 32.5504 26.9834C32.62 26.3563 32.6592 25.6285 32.6592 24.8918C32.6592 20.5605 31.2898 16.5492 28.9614 13.2665L29.003 13.3289C28.9966 13.3161 28.9854 13.3057 28.9726 13.3001L28.9718 13.3025Z" fill="#274D87"/>
</svg>
