<svg width="41" height="41" viewBox="0 0 41 41" fill="none" xmlns="http://www.w3.org/2000/svg">
<path d="M32.659 20.6147C32.6309 18.3279 31.9499 16.0967 30.6962 14.184C29.4424 12.2712 27.6683 10.7565 25.5827 9.81828C23.4968 8.88005 21.1865 8.55736 18.9235 8.88819C16.6606 9.21904 14.5393 10.1896 12.8095 11.6857C11.0797 13.1818 9.81338 15.141 9.15973 17.3326C8.5061 19.5242 8.49233 21.8569 9.12007 24.0561C9.74781 26.2554 10.9909 28.2293 12.7029 29.7457C14.415 31.262 16.5247 32.2576 18.7836 32.6151V24.1098H15.7835V20.6147H18.7836V17.9597C18.7141 17.3423 18.781 16.7173 18.9796 16.1286C19.1782 15.5399 19.5036 15.002 19.9327 14.5528C20.3619 14.1036 20.8844 13.7541 21.4634 13.5289C22.0424 13.3037 22.6639 13.2083 23.2837 13.2496C24.1834 13.2619 25.081 13.3421 25.9688 13.4896V16.4897H24.4687C24.2101 16.457 23.9473 16.483 23.7001 16.5655C23.4527 16.6481 23.2271 16.7851 23.0399 16.9666C22.8527 17.148 22.7087 17.3692 22.6186 17.6138C22.5283 17.8584 22.4942 18.1202 22.5187 18.3797V20.6447H25.8488L25.3088 24.1398H22.5337V32.5401C25.3686 32.0917 27.949 30.6421 29.8066 28.4541C31.6643 26.2662 32.6762 23.4849 32.659 20.6147Z" fill="#274D87"/>
</svg>
