<svg width="41" height="41" viewBox="0 0 41 41" fill="none" xmlns="http://www.w3.org/2000/svg">
<path d="M25.6872 8.76196H15.6312C11.2632 8.76196 8.65918 11.366 8.65918 15.734V25.778C8.65918 30.158 11.2632 32.762 15.6312 32.762H25.6752C30.0432 32.762 32.6472 30.158 32.6472 25.79V15.734C32.6592 11.366 30.0552 8.76196 25.6872 8.76196ZM20.6592 25.418C18.0912 25.418 16.0032 23.33 16.0032 20.762C16.0032 18.194 18.0912 16.106 20.6592 16.106C23.2272 16.106 25.3152 18.194 25.3152 20.762C25.3152 23.33 23.2272 25.418 20.6592 25.418ZM27.7632 14.618C27.7032 14.762 27.6192 14.894 27.5112 15.014C27.3912 15.122 27.2592 15.206 27.1152 15.266C26.9712 15.326 26.8152 15.362 26.6592 15.362C26.3352 15.362 26.0352 15.242 25.8072 15.014C25.6992 14.894 25.6152 14.762 25.5552 14.618C25.4952 14.474 25.4592 14.318 25.4592 14.162C25.4592 14.006 25.4952 13.85 25.5552 13.706C25.6152 13.55 25.6992 13.43 25.8072 13.31C26.0832 13.034 26.5032 12.902 26.8872 12.986C26.9712 12.998 27.0432 13.022 27.1152 13.058C27.1872 13.082 27.2592 13.118 27.3312 13.166C27.3912 13.202 27.4512 13.262 27.5112 13.31C27.6192 13.43 27.7032 13.55 27.7632 13.706C27.8232 13.85 27.8592 14.006 27.8592 14.162C27.8592 14.318 27.8232 14.474 27.7632 14.618Z" fill="#274D87"/>
</svg>
