<svg width="41" height="41" viewBox="0 0 41 41" fill="none" xmlns="http://www.w3.org/2000/svg">
<path fill-rule="evenodd" clip-rule="evenodd" d="M24.294 24.259C23.3796 24.259 22.6128 23.5082 22.6128 22.5821C22.6128 21.6547 23.3796 20.8793 24.294 20.8793C25.2072 20.8793 25.9476 21.6547 25.9476 22.5821C25.9476 23.5082 25.2084 24.259 24.294 24.259ZM24.5268 27.3575C23.7192 28.1753 22.4532 28.5733 20.658 28.5733C18.8616 28.5733 17.5968 28.1753 16.7904 27.3575C16.6152 27.1798 16.6152 26.8924 16.7904 26.7135C16.9644 26.5358 17.2488 26.5358 17.424 26.7135C18.054 27.3525 19.1112 27.6639 20.658 27.6639C22.2036 27.6639 23.262 27.3525 23.8932 26.7135C24.0672 26.5358 24.3516 26.5358 24.5268 26.7135C24.702 26.8924 24.702 27.1798 24.5268 27.3575ZM15.3696 22.5821C15.3696 21.6559 16.1352 20.8793 17.0484 20.8793C17.9616 20.8793 18.702 21.6559 18.702 22.5821C18.702 23.5082 17.9616 24.259 17.0484 24.259C16.1352 24.259 15.3696 23.5082 15.3696 22.5821ZM32.6592 20.7381C32.6592 19.218 31.44 17.9813 29.9412 17.9813C29.25 17.9813 28.5984 18.2428 28.0992 18.7114C26.3052 17.5272 23.9028 16.7617 21.2424 16.6571L22.71 12.1143L26.5644 13.0342C26.5656 14.2853 27.5688 15.3018 28.8024 15.3018C30.036 15.3018 31.0404 14.283 31.0404 13.0319C31.0404 11.7808 30.036 10.762 28.8024 10.762C27.8784 10.762 27.0852 11.3313 26.7432 12.143C25.9128 11.9446 22.944 11.2351 22.1136 11.0368L20.3016 16.6477C17.5404 16.7 15.0384 17.4617 13.1772 18.6739C12.684 18.2296 12.0456 17.9813 11.376 17.9813C9.87838 17.9813 8.65918 19.218 8.65918 20.7381C8.65918 21.7032 9.15598 22.5877 9.95038 23.0842C9.22678 27.4193 14.2632 31.162 20.6088 31.162C26.928 31.162 31.9476 27.4525 31.278 23.1393C32.1276 22.6561 32.6592 21.7507 32.6592 20.7381Z" fill="#274D87"/>
</svg>
