<svg width="41" height="41" viewBox="0 0 41 41" fill="none" xmlns="http://www.w3.org/2000/svg">
<path d="M13.6992 23.927C13.6992 24.4254 13.5514 24.9126 13.2745 25.3271C12.9976 25.7414 12.604 26.0645 12.1435 26.2551C11.6831 26.4459 11.1764 26.4957 10.6876 26.3985C10.1987 26.3013 9.74969 26.0613 9.39727 25.7088C9.04484 25.3565 8.80483 24.9074 8.7076 24.4187C8.61037 23.9298 8.66027 23.4231 8.851 22.9626C9.04174 22.5021 9.36474 22.1085 9.77914 21.8316C10.1936 21.5547 10.6808 21.407 11.1792 21.407H13.6992V23.927ZM14.9742 23.927C14.9742 23.2586 15.2397 22.6176 15.7123 22.1451C16.1849 21.6725 16.8258 21.407 17.4942 21.407C18.1626 21.407 18.8035 21.6725 19.276 22.1451C19.7487 22.6176 20.0142 23.2586 20.0142 23.927V30.242C20.0142 30.9104 19.7487 31.5513 19.276 32.0238C18.8035 32.4965 18.1626 32.762 17.4942 32.762C16.8258 32.762 16.1849 32.4965 15.7123 32.0238C15.2397 31.5513 14.9742 30.9104 14.9742 30.242V23.927ZM17.4942 13.802C16.9958 13.802 16.5086 13.6542 16.0941 13.3773C15.6797 13.1004 15.3567 12.7068 15.166 12.2463C14.9753 11.7859 14.9254 11.2792 15.0226 10.7903C15.1198 10.3015 15.3598 9.85248 15.7123 9.50005C16.0647 9.14763 16.5137 8.90761 17.0026 8.81038C17.4914 8.71315 17.998 8.76306 18.4585 8.95378C18.919 9.14452 19.3126 9.46752 19.5895 9.88192C19.8664 10.2963 20.0142 10.7836 20.0142 11.282V13.802H17.4942ZM17.4942 15.077C18.1626 15.077 18.8035 15.3425 19.276 15.8151C19.7487 16.2876 20.0142 16.9286 20.0142 17.597C20.0142 18.2654 19.7487 18.9063 19.276 19.3788C18.8035 19.8515 18.1626 20.117 17.4942 20.117H11.1792C10.5108 20.117 9.86986 19.8515 9.39727 19.3788C8.92468 18.9063 8.65918 18.2654 8.65918 17.597C8.65918 16.9286 8.92468 16.2876 9.39727 15.8151C9.86986 15.3425 10.5108 15.077 11.1792 15.077H17.4942ZM27.6192 17.597C27.6192 17.0986 27.7669 16.6113 28.0438 16.1969C28.3207 15.7825 28.7143 15.4595 29.1748 15.2688C29.6353 15.0781 30.142 15.0282 30.6309 15.1254C31.1196 15.2226 31.5687 15.4626 31.921 15.8151C32.2735 16.1675 32.5135 16.6165 32.6107 17.1053C32.7079 17.5942 32.6581 18.1008 32.4673 18.5613C32.2767 19.0218 31.9536 19.4154 31.5393 19.6923C31.1248 19.9692 30.6376 20.117 30.1392 20.117H27.6192V17.597ZM26.3442 17.597C26.3442 18.2654 26.0787 18.9063 25.606 19.3788C25.1335 19.8515 24.4926 20.117 23.8242 20.117C23.1558 20.117 22.5148 19.8515 22.0423 19.3788C21.5697 18.9063 21.3042 18.2654 21.3042 17.597V11.282C21.3042 10.6136 21.5697 9.97264 22.0423 9.50005C22.5148 9.02746 23.1558 8.76196 23.8242 8.76196C24.4926 8.76196 25.1335 9.02746 25.606 9.50005C26.0787 9.97264 26.3442 10.6136 26.3442 11.282V17.597ZM23.8242 27.722C24.3226 27.722 24.8098 27.8697 25.2243 28.1466C25.6386 28.4235 25.9617 28.8171 26.1523 29.2776C26.3431 29.7381 26.3929 30.2448 26.2957 30.7337C26.1985 31.2224 25.9585 31.6715 25.606 32.0238C25.2537 32.3763 24.8046 32.6163 24.3159 32.7135C23.827 32.8107 23.3203 32.7609 22.8598 32.5701C22.3993 32.3795 22.0057 32.0564 21.7288 31.6421C21.4519 31.2276 21.3042 30.7404 21.3042 30.242V27.722H23.8242ZM23.8242 26.447C23.1558 26.447 22.5148 26.1815 22.0423 25.7088C21.5697 25.2363 21.3042 24.5954 21.3042 23.927C21.3042 23.2586 21.5697 22.6176 22.0423 22.1451C22.5148 21.6725 23.1558 21.407 23.8242 21.407H30.1392C30.8076 21.407 31.4485 21.6725 31.921 22.1451C32.3937 22.6176 32.6592 23.2586 32.6592 23.927C32.6592 24.5954 32.3937 25.2363 31.921 25.7088C31.4485 26.1815 30.8076 26.447 30.1392 26.447H23.8242Z" fill="#274D87"/>
</svg>
