<svg width="41" height="41" viewBox="0 0 41 41" fill="none" xmlns="http://www.w3.org/2000/svg">
<path fill-rule="evenodd" clip-rule="evenodd" d="M16.2072 29.9617C25.2636 29.9617 30.2172 22.574 30.2172 16.1682C30.2172 15.9579 30.2172 15.7491 30.2028 15.5412C31.1664 14.856 31.998 14.0052 32.6592 13.0316C31.7616 13.4239 30.8076 13.6811 29.832 13.7945C30.8592 13.1884 31.6284 12.2363 31.9968 11.1127C31.0296 11.6774 29.9724 12.076 28.8696 12.2898C27.0048 10.3381 23.886 10.2435 21.9024 12.0795C20.6244 13.2633 20.0808 15.0283 20.478 16.7119C16.5192 16.5158 12.8304 14.6751 10.3296 11.6471C9.02278 13.8623 9.69118 16.6951 11.8548 18.1176C11.0712 18.0951 10.3044 17.8874 9.61918 17.5117V17.5732C9.62038 19.8806 11.2728 21.8674 13.5696 22.3246C12.8448 22.5195 12.084 22.5478 11.3472 22.4072C11.9916 24.3826 13.8408 25.7356 15.9468 25.7746C14.2032 27.1238 12.0492 27.8565 9.83158 27.8541C9.44038 27.8529 9.04918 27.8304 8.65918 27.7844C10.9116 29.2068 13.5312 29.9617 16.2072 29.9582" fill="#274D87"/>
</svg>
